<svg xmlns="http://www.w3.org/2000/svg" xmlns:xlink="http://www.w3.org/1999/xlink" preserveAspectRatio="xMidYMid meet" version="1.0" viewBox="0.0 0.0 82.2 82.2" zoomAndPan="magnify" style="fill: rgb(140, 82, 255);" original_string_length="916"><g id="__id168_silhtj5r0v"><path d="M41.1,0.5c22.4,0,40.6,18.2,40.6,40.6S63.5,81.7,41.1,81.7S0.5,63.5,0.5,41.1S18.7,0.5,41.1,0.5z" style="fill: rgb(217, 202, 246);"/></g><g id="__id169_silhtj5r0v"><path d="M41.1,82.2C18.4,82.2,0,63.8,0,41.1S18.4,0,41.1,0s41.1,18.4,41.1,41.1S63.8,82.2,41.1,82.2z M41.1,1C19,1,1,19,1,41.1 c0,22.1,18,40.1,40.1,40.1c22.1,0,40.1-18,40.1-40.1C81.2,19,63.2,1,41.1,1z M67.7,38h-1c0,14.1-11.5,25.6-25.6,25.6 S15.5,52.1,15.5,38h-1c0,14.7,11.9,26.6,26.6,26.6S67.7,52.7,67.7,38z M26.7,22.9c1.4,0,2.6,1.2,2.6,2.6s-1.2,2.6-2.6,2.6 s-2.6-1.2-2.6-2.6S25.3,22.9,26.7,22.9z M55.5,22.9c1.4,0,2.6,1.2,2.6,2.6s-1.2,2.6-2.6,2.6s-2.6-1.2-2.6-2.6S54.1,22.9,55.5,22.9z" style="fill: inherit;"/></g></svg>